<?xml version="1.0" standalone="no"?>
<!DOCTYPE svg PUBLIC "-//W3C//DTD SVG 20010904//EN"
 "http://www.w3.org/TR/2001/REC-SVG-20010904/DTD/svg10.dtd">
<svg version="1.0" xmlns="http://www.w3.org/2000/svg"
 width="500.000000pt" height="500.000000pt" viewBox="0 0 500.000000 500.000000"
 preserveAspectRatio="xMidYMid meet">

<g transform="translate(0.000000,500.000000) scale(0.100000,-0.100000)"
fill="#fff" stroke="none">
<path d="M2426 4486 c-53 -20 -106 -65 -130 -112 -17 -31 -22 -62 -24 -147 -2
-59 -7 -106 -10 -105 -77 41 -109 50 -164 45 -107 -10 -185 -78 -208 -182 -20
-90 -6 -118 196 -412 l184 -268 0 -197 c0 -109 -3 -198 -8 -198 -4 0 -83 44
-176 98 l-169 97 -133 280 c-73 154 -147 296 -163 316 -91 110 -270 106 -358
-9 -33 -44 -59 -135 -47 -166 5 -14 -18 -5 -88 33 -86 46 -101 51 -159 51 -55
0 -73 -5 -119 -32 -119 -71 -147 -235 -59 -342 16 -19 65 -55 110 -81 l81 -46
-45 -29 c-117 -74 -141 -240 -50 -341 40 -44 79 -68 132 -80 19 -4 166 3 350
18 l316 25 172 -98 c95 -55 172 -101 173 -104 0 -3 -78 -50 -173 -104 l-172
-99 -285 21 c-350 27 -390 28 -439 3 -52 -27 -108 -92 -122 -143 -26 -98 15
-205 98 -258 l45 -29 -81 -46 c-89 -51 -132 -96 -150 -154 -40 -135 37 -272
170 -300 67 -15 123 -1 213 51 39 22 73 42 76 43 3 2 6 -18 6 -44 7 -210 272
-303 405 -142 16 20 90 162 163 316 l133 280 169 97 c93 54 172 98 177 98 4 0
7 -89 7 -198 l0 -197 -184 -267 c-202 -294 -215 -321 -196 -413 31 -148 192
-228 326 -160 27 14 50 25 52 25 1 0 2 -41 2 -91 0 -51 5 -109 11 -130 26 -86
126 -159 219 -159 87 0 182 64 217 147 8 20 13 71 13 133 0 55 1 100 3 100 1
0 24 -11 51 -25 134 -68 293 10 327 159 20 90 2 128 -201 421 l-180 260 0 198
c0 108 3 197 8 197 4 0 83 -44 176 -98 l169 -97 139 -289 c76 -159 150 -302
165 -318 92 -96 259 -92 343 10 36 43 65 132 55 169 l-6 25 58 -33 c113 -65
134 -72 193 -72 161 0 266 145 219 304 -18 58 -61 103 -149 154 l-81 46 48 32
c88 60 127 180 87 275 -19 46 -68 98 -116 123 -48 25 -88 24 -438 -3 l-285
-21 -172 99 c-95 54 -173 101 -172 104 0 3 77 49 172 104 l172 98 316 -25
c373 -30 398 -27 476 55 97 101 78 265 -40 345 l-47 31 80 47 c88 52 131 96
149 154 47 160 -56 301 -220 301 -56 0 -72 -5 -156 -51 -90 -48 -93 -49 -87
-25 9 36 -21 125 -56 168 -83 100 -252 105 -343 10 -15 -16 -89 -158 -165
-318 l-139 -289 -168 -97 c-92 -54 -172 -98 -176 -98 -5 0 -9 89 -9 198 l0
197 184 267 c203 295 218 328 197 416 -26 104 -102 169 -209 179 -56 5 -79 -1
-164 -45 -5 -2 -8 42 -8 97 0 110 -10 146 -55 199 -56 67 -169 98 -249 68z
m123 -120 c56 -30 56 -27 61 -335 l5 -286 97 141 c97 141 122 164 176 164 69
0 126 -76 104 -139 -6 -16 -94 -150 -196 -299 l-186 -270 0 -321 c0 -177 3
-321 6 -321 4 0 132 72 284 160 l277 160 143 301 c90 189 153 307 168 320 16
12 40 19 69 19 36 0 50 -6 74 -29 41 -42 42 -96 2 -176 -72 -141 -111 -235
-95 -226 9 5 116 66 236 136 228 131 262 144 314 116 55 -30 69 -123 25 -170
-16 -15 -128 -86 -251 -156 -123 -70 -222 -129 -220 -130 2 -2 71 -8 153 -15
181 -14 210 -22 236 -64 36 -59 16 -131 -43 -159 -31 -15 -57 -14 -328 8 -162
14 -314 25 -338 25 -37 0 -79 -21 -317 -157 -151 -87 -274 -160 -274 -163 -1
-3 126 -77 282 -166 l282 -161 275 23 c341 29 408 29 436 6 45 -36 56 -90 29
-142 -25 -47 -57 -57 -233 -71 -90 -7 -159 -15 -155 -20 4 -4 107 -64 228
-133 121 -70 230 -138 243 -152 26 -30 29 -81 6 -125 -18 -36 -75 -63 -112
-54 -19 5 -178 94 -484 272 -7 4 57 -139 106 -235 49 -97 31 -173 -47 -199
-40 -13 -77 -5 -108 23 -9 8 -81 150 -159 314 l-143 299 -278 161 c-153 88
-280 160 -283 160 -3 0 -6 -144 -6 -321 l0 -321 186 -270 c102 -149 190 -283
196 -299 22 -63 -35 -139 -104 -139 -54 0 -79 23 -176 164 l-97 141 -5 -287
-5 -288 -28 -27 c-23 -23 -36 -28 -77 -28 -41 0 -54 5 -77 28 l-28 27 -5 288
-5 287 -96 -140 c-97 -141 -122 -165 -175 -165 -69 0 -112 55 -106 135 1 11
87 144 192 295 l190 275 0 323 c0 177 -2 322 -5 322 -3 0 -131 -72 -284 -160
l-278 -161 -133 -278 c-72 -153 -141 -293 -151 -310 -58 -96 -199 -57 -199 53
0 27 12 67 36 116 20 41 51 108 70 148 l33 73 -32 -19 c-150 -91 -439 -252
-459 -257 -37 -9 -94 18 -112 54 -23 44 -20 95 6 125 13 14 122 82 243 151
121 70 224 130 228 134 4 4 -65 13 -155 20 -98 8 -173 18 -190 27 -53 28 -73
101 -41 154 34 59 59 60 463 26 l275 -23 185 105 c102 58 229 131 282 161 54
31 98 58 98 61 -1 3 -124 76 -275 163 -238 136 -280 157 -317 157 -24 0 -176
-11 -338 -25 -262 -21 -298 -22 -325 -9 -61 29 -82 102 -46 160 26 42 55 50
236 64 83 7 151 13 153 15 2 1 -97 60 -220 131 -123 70 -235 140 -251 155 -44
44 -34 129 21 165 53 35 85 24 328 -117 126 -72 232 -133 236 -136 9 -4 -23
67 -86 196 -57 118 -61 167 -17 212 37 36 104 41 143 9 16 -12 78 -129 169
-320 l143 -300 277 -160 c152 -88 280 -160 283 -160 3 0 6 145 6 323 l0 322
-190 275 c-105 151 -191 284 -192 295 -6 80 37 135 106 135 53 0 78 -24 175
-165 l96 -140 5 285 c3 157 9 291 14 298 13 21 69 52 94 52 13 0 35 -6 51 -14z"/>
</g>
</svg>
